<svg width="50" height="50" viewBox="0 0 50 50" fill="none" xmlns="http://www.w3.org/2000/svg">
<path d="M34.2225 18.5258L26.0058 13.78C25.3825 13.4258 24.6317 13.4258 24.0083 13.78L15.7917 18.5258C15.1683 18.88 14.8 19.5458 14.8 20.2542V29.7458C14.8 30.4542 15.1825 31.12 15.7917 31.4742L24.0083 36.22C24.6317 36.5742 25.3825 36.5742 26.0058 36.22L34.2225 31.4742C34.8458 31.12 35.2142 30.4542 35.2142 29.7458V20.2542C35.2142 19.5458 34.8317 18.88 34.2225 18.5258ZM31.5592 30.1283H18.4408C17.7183 30.1283 17.265 29.3492 17.6333 28.7258L24.1925 17.35C24.5467 16.7267 25.4533 16.7267 25.8075 17.35L32.3667 28.7258C32.7208 29.3492 32.2817 30.1283 31.5592 30.1283Z" fill="#484C52"/>
</svg>
