<svg width="50" height="50" viewBox="0 0 50 50" fill="none" xmlns="http://www.w3.org/2000/svg">
<path d="M34.3217 28.1875C33.8825 26.7567 33.0325 25.6233 31.9133 24.6458C31.035 23.895 30.0717 23.2858 29.0658 22.7333C28.6692 22.5067 28.2583 22.2942 27.8475 22.0958C27.72 22.0392 27.5642 22.025 27.4225 21.9967V22.0392C27.4225 22.0392 27.4508 22.1242 27.4792 22.1667C28.2017 23.2008 28.9383 24.235 29.6608 25.2692C30.0858 25.8642 30.4967 26.4592 30.9217 27.0542C31.1767 27.4083 31.12 27.7908 30.78 28.0033C30.1567 28.4 29.5333 28.7825 28.91 29.165C28.6125 29.3492 28.2867 29.2642 28.0742 28.9808C28.0175 28.91 27.975 28.825 27.9325 28.74C27.2383 27.4508 26.53 26.1475 25.8358 24.8583C25.8075 24.8017 25.7792 24.7592 25.7225 24.6883C25.5525 25.0142 25.3825 25.3117 25.2267 25.6233C24.9433 26.1475 24.6742 26.6717 24.3908 27.1958C24.1925 27.5642 23.8808 27.6775 23.555 27.4792C23.0025 27.1392 22.45 26.785 21.9117 26.4308C21.6708 26.275 21.5858 26.0342 21.6708 25.765C21.6992 25.6658 21.77 25.5667 21.8267 25.4817C22.4642 24.5467 23.1158 23.6258 23.7533 22.6908C23.9092 22.4783 24.0508 22.2517 24.2067 22.025C24.1358 22.025 24.0933 22.0108 24.0508 22.0108C23.5975 22.0108 23.13 22.0108 22.6767 22.0108C22.3367 22.0108 22.025 22.0958 21.7275 22.2658C21.4442 22.4217 21.1608 22.5917 20.8775 22.7475C19.9708 23.2575 19.0783 23.7958 18.2708 24.4617C16.5425 25.8642 15.48 27.6208 15.31 29.8733C15.1967 31.3042 15.5508 32.6358 16.3867 33.8117C17.435 35.285 18.9083 36.0925 20.6792 36.4042C21.7842 36.6025 22.9033 36.6592 24.0225 36.6733C25.3683 36.6733 26.7142 36.7017 28.06 36.5742C28.9242 36.4892 29.7883 36.3617 30.61 36.05C31.8425 35.5825 32.8767 34.8317 33.5992 33.7267C34.7325 32.0125 34.8883 30.1567 34.2933 28.2158L34.3217 28.1875Z" fill="#484C52"/>
<path d="M21.5433 18.4267C21.9258 18.9083 22.28 19.4183 22.6483 19.9142C22.7192 20.0133 22.8042 20.0558 22.9317 20.0558C24.4617 20.0558 25.9775 20.0558 27.5075 20.0558C27.5925 20.0558 27.7058 20.0133 27.7767 19.9567C28.74 19.1208 29.5192 18.1292 30.1567 17.0383C30.355 16.6983 30.3975 16.33 30.2983 15.9475C30.1992 15.5508 29.9725 15.2108 29.675 14.9275C28.9383 14.2192 28.06 13.8367 27.0683 13.7375C25.9492 13.6383 25.1558 14.12 24.7308 15.1683C24.6175 15.4375 24.5608 15.7067 24.4617 16.0042C24.405 15.9617 24.3483 15.9192 24.3058 15.8767C23.7392 15.4233 23.1158 15.0833 22.365 14.9842C21.3592 14.8708 20.3817 15.7917 20.7783 16.8683C20.9908 17.4208 21.1892 17.9592 21.5575 18.4267H21.5433Z" fill="#484C52"/>
</svg>
