<svg width="50" height="50" viewBox="0 0 50 50" fill="none" xmlns="http://www.w3.org/2000/svg">
<path d="M37.5942 21.6992C36.2058 19.2767 34.8033 16.8542 33.4008 14.4458C33.3442 14.3325 33.2733 14.2333 33.2025 14.1483C32.7492 13.6242 31.9983 13.525 31.3892 13.865C30.5533 14.3325 29.7317 14.8142 28.91 15.2958C28.7683 15.395 28.6408 15.4942 28.5417 15.6217C28.3433 15.8767 28.23 16.1883 28.2158 16.5708C28.23 16.6417 28.23 16.7833 28.2725 16.8825C28.4 17.18 28.5417 17.4633 28.7117 17.7325C30.0292 20.0275 31.3467 22.3083 32.6642 24.5892C32.8058 24.83 32.9758 25.0425 33.2167 25.17C33.6417 25.4108 34.0667 25.425 34.4775 25.255C34.5625 25.2267 34.6475 25.1842 34.7325 25.1417C35.5258 24.7025 36.305 24.235 37.0842 23.7817C37.325 23.64 37.5233 23.47 37.6508 23.215C37.92 22.705 37.8917 22.195 37.5942 21.6992ZM30.61 34.8033C29.8025 32.82 28.995 30.8225 28.1733 28.8392C27.9892 28.3858 27.805 27.9325 27.6067 27.465C28.6408 26.9125 29.675 26.3458 30.695 25.7933L26.3033 18.1858C25.0567 18.9792 23.8383 19.7583 22.6058 20.5517C20.07 22.1667 17.5483 23.7817 15.0267 25.3967C14.3183 25.8358 14.1625 26.7425 14.46 27.3092C14.5308 27.4367 14.5875 27.55 14.6583 27.6775C14.6158 27.7058 14.5875 27.7342 14.545 27.7483C13.95 28.1025 13.355 28.4567 12.76 28.8108C12.1792 29.165 12.0092 29.7458 12.335 30.3125C12.6892 30.9642 13.0575 31.6017 13.44 32.225C13.5817 32.4942 13.8083 32.6925 14.1058 32.7775C14.4175 32.8625 14.715 32.7917 14.9983 32.65C15.6075 32.31 16.2025 31.9558 16.7975 31.6158C16.84 31.6017 16.8683 31.5875 16.9108 31.5733C16.9675 31.6442 17.0242 31.715 17.0808 31.7858C17.3075 32.0692 17.605 32.2533 17.9733 32.31C18.3133 32.3525 18.6392 32.2675 18.9367 32.1117C20.0133 31.5308 21.0758 30.9642 22.1525 30.3975C22.3508 30.2842 22.5492 30.185 22.79 30.0575C22.7475 30.1425 22.7192 30.2133 22.705 30.27C22.0817 31.7858 21.4725 33.2875 20.8492 34.7892C20.6367 35.3417 20.7358 35.7808 21.175 36.1067C21.515 36.3758 22.0108 36.4042 22.365 36.1917C22.5917 36.0358 22.7333 35.8092 22.8325 35.5542C23.7392 33.3583 24.6317 31.1625 25.5383 28.9808C25.595 28.825 25.6658 28.6692 25.7367 28.485C25.765 28.5558 25.7792 28.5983 25.7933 28.6267C26.7425 30.95 27.6917 33.2592 28.6408 35.5683C28.7542 35.8233 28.8817 36.05 29.1367 36.2058C29.6183 36.475 30.2983 36.2908 30.5958 35.8092C30.7942 35.4692 30.7517 35.1292 30.61 34.8033Z" fill="#484C52"/>
</svg>
