<svg width="50" height="50" viewBox="0 0 50 50" fill="none" xmlns="http://www.w3.org/2000/svg">
<path d="M24.2492 14.8425C24.7025 14.5167 25.3117 14.5167 25.765 14.8425L34.86 21.345C35.1575 21.5575 35.3559 21.8975 35.3983 22.2517L36.7017 33.9533C36.7442 34.3217 36.6309 34.69 36.3759 34.9592C36.1209 35.2283 35.7808 35.3983 35.4125 35.3983H31.0208C30.525 35.3983 30.0717 35.1292 29.8592 34.6758L25.7792 26.5158C25.7083 26.3742 25.5667 26.2892 25.425 26.2892C25.1983 26.2892 25.0283 26.4733 25.0283 26.6858V34.0808C25.0283 34.8033 24.4475 35.3842 23.725 35.3842H14.63C14.2617 35.3842 13.9075 35.2283 13.6667 34.945C13.4258 34.6617 13.2983 34.3075 13.3408 33.9392L14.6442 22.2375C14.6867 21.8692 14.885 21.5433 15.1825 21.3308L24.2775 14.8425H24.2492Z" fill="#484C52"/>
</svg>
